<svg xmlns="http://www.w3.org/2000/svg"  viewBox="0 0 50 50" width="50px" height="50px"><path d="M 17.533203 8 C 7.8628684 8 0 15.845429 0 25.5 C 0 35.154571 7.8628684 43 17.533203 43 C 20.210166 43 22.730426 42.355862 25.001953 41.285156 C 27.272902 42.356832 29.791837 43 32.466797 43 C 42.137132 43 50 35.154571 50 25.5 C 50 15.845429 42.137132 8 32.466797 8 C 29.791172 8 27.268283 8.6396741 24.996094 9.7128906 C 22.725091 8.6414619 20.206632 8 17.533203 8 z M 17.533203 10 C 20.060603 10 22.441964 10.599903 24.548828 11.666016 L 24.998047 11.892578 L 25.484375 11.650391 L 25.486328 11.648438 C 27.58458 10.59276 29.952482 10 32.466797 10 C 41.058462 10 48 16.928571 48 25.5 C 48 34.071429 41.058462 41 32.466797 41 C 29.939397 41 27.559118 40.399192 25.453125 39.333984 L 25.001953 39.107422 L 24.550781 39.333984 C 22.443374 40.398493 20.062473 41 17.533203 41 C 8.9415381 41 2 34.071429 2 25.5 C 2 16.928571 8.9415381 10 17.533203 10 z M 17.533203 12 C 15.726734 12 14.000195 12.354187 12.421875 12.998047 C 7.4850352 15.011673 4.0097656 19.858626 4.0097656 25.5 C 4.0097656 32.945522 10.077887 39 17.535156 39 C 18.871009 39 20.164871 38.805268 21.386719 38.443359 L 23.052734 37.951172 L 21.789062 36.757812 C 19.37483 34.478553 17.756491 31.418058 17.197266 28 L 22 28 L 22 30 L 19.607422 30 L 20.316406 31.441406 C 21.271547 33.384103 22.679951 35.063384 24.404297 36.341797 L 25 36.783203 L 25.595703 36.341797 C 27.319196 35.061858 28.726502 33.384098 29.681641 31.441406 L 30.390625 30 L 28.052734 30 L 28.052734 28 L 32.802734 28 C 32.243533 31.418146 30.624508 34.479481 28.210938 36.759766 L 26.947266 37.953125 L 28.613281 38.445312 C 29.834644 38.805999 31.130023 39 32.466797 39 C 39.924066 39 45.992188 32.945522 45.992188 25.5 C 45.992188 18.054478 39.924066 12 32.466797 12 C 31.130023 12 29.834976 12.194777 28.613281 12.556641 L 26.949219 13.048828 L 28.210938 14.242188 C 29.040881 15.026075 29.78514 15.898906 30.425781 16.847656 L 30.425781 16.849609 C 31.274118 18.105484 31.87725 19.520001 32.330078 21 L 30.177734 21.003906 C 29.275951 18.487646 27.744176 16.266371 25.642578 14.693359 C 25.632248 14.685759 25.604071 14.663941 25.619141 14.675781 L 25.017578 14.203125 L 24.404297 14.658203 C 22.281039 16.233966 20.730928 18.468683 19.822266 21.003906 L 17.669922 21 C 18.122232 19.519687 18.726898 18.105826 19.576172 16.849609 L 19.576172 16.847656 C 20.216813 15.898906 20.959119 15.026075 21.789062 14.242188 L 23.052734 13.048828 L 21.386719 12.556641 C 20.164248 12.194914 18.869977 12 17.533203 12 z M 17.533203 14 C 18.107527 14 18.632902 14.15759 19.183594 14.238281 C 18.760238 14.735097 18.284453 15.185775 17.917969 15.728516 C 16.696221 17.535684 15.804595 19.584101 15.328125 21.787109 L 15.066406 22.998047 L 21.1875 23.005859 L 21.396484 22.283203 C 22.024771 20.126521 23.34572 18.305648 25.005859 16.873047 C 26.663269 18.304848 27.975664 20.128697 28.603516 22.283203 L 28.814453 23.005859 L 34.935547 22.998047 L 34.673828 21.787109 C 34.196369 19.58549 33.302707 17.535667 32.082031 15.728516 C 31.715547 15.185775 31.239762 14.735097 30.816406 14.238281 C 31.366941 14.157596 31.892473 14 32.466797 14 C 38.845527 14 43.992188 19.137522 43.992188 25.5 C 43.992188 31.862478 38.845527 37 32.466797 37 C 31.909114 37 31.398985 36.845606 30.863281 36.769531 C 33.132219 34.097993 34.661789 30.778857 34.994141 27.089844 L 35.09375 26 L 26.052734 26 L 26.052734 32 L 26.949219 32 C 26.388802 32.806209 25.744241 33.532774 25 34.171875 C 24.255756 33.533316 23.609559 32.806756 23.048828 32 L 24 32 L 24 26 L 14.90625 26 L 15.003906 27.089844 C 15.336271 30.779003 16.864926 34.098451 19.134766 36.769531 C 18.599973 36.845499 18.091584 37 17.535156 37 C 11.156426 37 6.0097656 31.862478 6.0097656 25.5 C 6.0097656 20.679374 8.9726212 16.563984 13.175781 14.849609 C 14.519461 14.301469 15.987672 14 17.533203 14 z"/></svg>