<svg xmlns="http://www.w3.org/2000/svg" width="24" height="17"><g fill="none" fill-rule="nonzero"><path fill="#1C578B" d="M0 0h24v17H0z"/><path fill="#F7981D" d="M22.652 8.392c0 3.384-2.736 6.129-6.114 6.13-3.377 0-6.116-2.743-6.117-6.127v-.003c0-3.385 2.737-6.13 6.114-6.13 3.377-.001 6.116 2.742 6.117 6.127v.003z"/><path fill="#CB2026" d="M8.294 2.264c-3.357.021-6.076 2.758-6.076 6.128 0 3.383 2.74 6.128 6.116 6.128a6.085 6.085 0 0 0 4.114-1.597c.224-.203.431-.422.622-.656h-1.253c-.166-.2-.318-.41-.456-.631h2.16c.133-.211.251-.43.357-.657h-2.873a6.015 6.015 0 0 1-.256-.643h3.385a6.18 6.18 0 0 0 .174-3.256H10.57a6.24 6.24 0 0 1 .174-.644h3.386a6.15 6.15 0 0 0-.264-.657h-2.862c.104-.22.22-.435.351-.643h2.16a6.202 6.202 0 0 0-.475-.656h-1.204c.186-.22.391-.427.613-.62a6.083 6.083 0 0 0-4.115-1.596h-.04z"/><path fill="#FFF" d="M10.532 9.952c-.065.018-.25.084-.488.086-.303.002-.518-.169-.518-.553 0-.26.37-2.39.384-2.405h.652l-.067.381h.325l-.083.614h-.345l-.183 1.132c-.014.089.01.21.237.21.058 0 .124-.02.168-.02l-.082.555zm.207-1.057c0-.8.484-1.506 1.14-1.506.714 0 .928.524.928.954 0 .172-.085.595-.085.595h-1.324s-.122.523.577.523c.328 0 .691-.162.691-.162l-.115.63s-.21.107-.688.107c-.517 0-1.124-.22-1.124-1.141zm1.142-.922c-.355 0-.424.405-.423.447h.722c0-.033.068-.447-.3-.447h.001zm4.123 1.98s-.35.089-.57.088c-.777 0-1.172-.538-1.172-1.35 0-1.229.732-1.882 1.484-1.882.338 0 .733.16.733.16l-.106.692s-.267-.187-.598-.187c-.443 0-.84.424-.84 1.194 0 .38.185.734.646.734.22 0 .54-.162.54-.162l-.117.712v.001zM6.952 7.399c.23 0 .894.025.894.787L7.59 9.983h-.573l.021-.25c-.01.002-.208.3-.668.3-.24 0-.628-.13-.628-.703 0-.726.591-.967 1.154-.967.089 0 .28.016.28.016s.022-.044.022-.164c0-.198-.178-.225-.42-.225-.427 0-.71.115-.71.115l.095-.562s.342-.144.789-.144zm.14 1.463c-.02-.003-.032-.015-.142-.015-.478 0-.575.214-.575.393 0 .091.053.246.255.246.392 0 .474-.514.461-.624h.001zm1.363 1.158c-.546 0-.715-.075-.73-.08l.086-.57c.002-.005.275.099.578.099.176 0 .404-.017.404-.227 0-.315-.815-.24-.815-.987 0-.66.488-.852.97-.852.372 0 .601.051.601.051l-.082.577S9.113 8 9.022 8c-.231 0-.358.052-.358.213 0 .326.776.166.776.977 0 .866-.838.829-.985.829v.001zm12.942-3.138l.653-.001-.498 3.103h-.633l.028-.233s-.215.273-.606.273c-.542 0-.807-.524-.807-1.059 0-.828.497-1.549 1.094-1.549.383 0 .629.34.629.34l.14-.874zm-.302 1.703c0-.38-.12-.542-.356-.542-.285 0-.512.335-.512.84 0 .31.11.507.344.507.353 0 .524-.46.524-.805zM3.425 9.986h-.627l.521-3.106h.95l.034 1.906.641-1.906h1.031l-.513 3.106h-.667l.371-2.342-.837 2.342H3.88l-.057-2.342-.397 2.342h-.001zm10.033.005h-.669l.406-2.53h.606l-.057.367s.216-.4.507-.4c.085 0 .126.01.126.01-.087.176-.163.338-.242.756-.453-.16-.488.717-.677 1.797zm4.048-2.592c.23 0 .894.025.894.787l-.256 1.797h-.573l.021-.25c-.01.002-.208.3-.668.3-.24 0-.628-.13-.628-.703 0-.726.591-.967 1.154-.967.09 0 .28.016.28.016s.022-.044.022-.164c0-.198-.177-.225-.42-.225-.427 0-.709.115-.709.115l.094-.562s.342-.144.789-.144zm.14 1.463c-.02-.003-.031-.015-.142-.015-.477 0-.574.214-.574.393 0 .091.053.246.255.246.392 0 .473-.514.46-.624h.001zm1.278 1.129h-.669l.406-2.53h.607l-.058.367s.215-.4.507-.4c.085 0 .126.01.126.01-.086.176-.163.338-.242.756-.452-.16-.488.717-.677 1.797z"/></g></svg>